<svg width="41" height="30" viewBox="0 0 41 30" fill="none" xmlns="http://www.w3.org/2000/svg">
<path d="M1.02539 0.257227C0.703125 0.349368 0.585938 0.533651 0.585938 0.913735C0.595703 1.35141 0.751953 1.69694 1.07422 1.9964C1.61133 2.48014 18.7305 13.3644 19.1895 13.5026C19.8145 13.6984 21.0156 13.6984 21.6406 13.5026C22.0898 13.3644 39.1309 2.53773 39.7559 1.9964C40.293 1.52417 40.3906 0.59124 39.9414 0.326333C39.7461 0.211156 35.7422 0.188121 20.459 0.188121C9.87305 0.199638 1.13281 0.234192 1.02539 0.257227Z" fill="#E3DAD1"/>
<path d="M0.0585938 3.12537C0.0292969 3.22902 0 8.74599 0 15.3917C0 25.4121 0.0195313 27.5429 0.136719 27.8654C0.322266 28.3952 0.9375 29.0632 1.51367 29.3857L2.00195 29.6621H20.4102C38.0273 29.6621 38.8379 29.6506 39.209 29.4433C39.7168 29.1784 40.3906 28.303 40.5273 27.7387C40.6055 27.4277 40.625 23.8111 40.6055 15.1498L40.5762 2.99867L40.3027 2.96412C39.9512 2.91805 39.9902 2.88349 33.9453 7.75547C31.1231 10.036 28.418 12.2013 27.9297 12.5583L27.0508 13.2264L27.7246 14.1017C30.332 17.5225 35.1074 23.8917 35.2344 24.1106C35.4297 24.4676 35.2637 24.6865 34.9414 24.5137C34.8145 24.4446 32.5488 22.2332 29.9023 19.5841L25.0879 14.7813L23.8477 15.7027C21.9043 17.1424 21.8945 17.1539 20.6543 17.2C20.0391 17.223 19.4043 17.1885 19.1699 17.1194C18.8184 17.0042 17.9102 16.3937 16.25 15.1613L15.7422 14.7813L10.9277 19.5841C8.27149 22.2332 6.00586 24.4446 5.87891 24.5137C5.55664 24.6865 5.39063 24.4676 5.58594 24.1106C5.67383 23.9609 7.51953 21.473 9.70703 18.5706C11.8848 15.6796 13.6719 13.284 13.6719 13.2609C13.6719 13.2264 11.9727 11.8558 9.89258 10.1972C7.80274 8.53868 4.90234 6.23514 3.4375 5.06034C1.28906 3.3442 0.712891 2.94108 0.449219 2.94108C0.234375 2.94108 0.0976563 3.01019 0.0585938 3.12537Z" fill="#E3DAD1"/>
</svg>
