<svg width="70" height="70" viewBox="0 0 70 70" fill="none" xmlns="http://www.w3.org/2000/svg">
<path fill-rule="evenodd" clip-rule="evenodd" d="M15.1739 0.0839998C15.998 0.0150801 20.2377 0 34.7341 0H46.0355C54.1801 0.014253 54.6436 0.0819297 56.1909 0.307853L56.2806 0.320946C59.6283 0.80775 62.4377 2.15402 64.7348 4.36623C66.022 5.61498 66.9086 6.83633 67.707 8.47178C68.6801 10.4697 69.1581 12.3598 69.3771 15.1708C69.4241 15.7739 69.4455 25.3723 69.4455 34.9771C69.4455 44.5803 69.4257 54.1964 69.3788 54.7995C69.1624 57.5659 68.6844 59.4722 67.7417 61.4324C65.8671 65.3311 62.4221 68.1745 58.2615 69.2569C56.7527 69.65 55.3881 69.8347 53.0381 69.9462C52.1995 69.9892 43.4297 70 34.6598 70C25.89 70 17.1255 69.9731 16.2656 69.9354C14.236 69.8385 12.6551 69.6338 11.2237 69.2623C7.0898 68.1852 3.58082 65.2988 1.74352 61.4539C0.782143 59.4453 0.328173 57.609 0.0878286 54.6903C0.0183787 53.8609 0.00236807 49.5906 0.00236807 34.9863C0.00236807 33.1969 0.00166343 31.5732 0.00102289 30.0971C-9.79269e-05 27.5144 -0.00102244 25.384 0.00236807 23.6103C0.0160187 15.3893 0.0823367 14.928 0.307872 13.3592C0.31174 13.3323 0.315655 13.305 0.319618 13.2774C0.802985 9.90528 2.13823 7.06844 4.34136 4.76255C5.55109 3.49813 6.77685 2.59614 8.33105 1.81797C10.3478 0.805606 12.199 0.333328 15.1739 0.0839998ZM24.09 9.14541C26.8436 9.01918 27.7239 8.98829 34.7325 8.98828C41.7433 8.98829 42.6203 9.01918 45.374 9.14541C48.1228 9.27219 50.0001 9.71052 51.6462 10.3537C53.346 11.0174 54.7823 11.906 56.2186 13.3526C57.6548 14.7982 58.537 16.2492 59.1987 17.9597C59.8334 19.6133 60.2691 21.5031 60.3982 24.2718C60.5219 27.046 60.5542 27.9323 60.5542 34.9955C60.5542 42.0586 60.5219 42.9429 60.3982 45.7169C60.2691 48.4846 59.8334 50.3749 59.1987 52.0291C58.537 53.7391 57.6548 55.1901 56.2186 56.6356C54.7839 58.0823 53.3455 58.9731 51.6478 59.6373C50.005 60.2804 48.1266 60.7188 45.3778 60.8456C42.6236 60.9718 41.7462 61.0027 34.7333 61.0027C27.7215 61.0027 26.842 60.9718 24.0878 60.8456C21.3396 60.7188 19.4627 60.2804 17.8199 59.6373C16.1228 58.9731 14.6822 58.0823 13.2476 56.6356C11.8118 55.1901 10.9297 53.7391 10.2696 52.0286C9.63166 50.3749 9.19648 48.4851 9.07005 45.7164C8.94527 42.9423 8.91406 42.0586 8.91406 34.9955C8.91406 27.9324 8.94635 27.0454 9.06952 24.2713C9.19323 21.5037 9.62895 19.6133 10.2691 17.9591C10.9307 16.2492 11.813 14.7982 13.2492 13.3526C14.6844 11.9065 16.1249 11.0179 17.8231 10.3537C19.4649 9.71052 21.3412 9.27219 24.09 9.14541ZM34.7325 8.98828C34.7339 8.98828 34.7352 8.98828 34.7366 8.98828H34.7285C34.7298 8.98828 34.7312 8.98828 34.7325 8.98828ZM33.876 13.6748C33.3539 13.6745 32.87 13.6743 32.4202 13.675L32.4203 13.6685C27.608 13.6739 26.6849 13.7064 24.303 13.8148C21.7855 13.9313 20.4186 14.3539 19.5085 14.7115C18.3035 15.184 17.4428 15.7474 16.5391 16.6577C15.6354 17.568 15.0749 18.4349 14.6069 19.6485C14.2535 20.5653 13.8329 21.9415 13.7177 24.4772C13.594 27.2188 13.5693 28.038 13.5693 34.983C13.5693 41.928 13.594 42.7516 13.7177 45.4932C13.8323 48.0289 14.2535 49.4051 14.6069 50.3208C15.076 51.535 15.6354 52.3997 16.5391 53.31C17.4428 54.2202 18.3035 54.7837 19.5085 55.2551C20.4192 55.6111 21.7855 56.0348 24.303 56.1518C27.0249 56.2764 27.842 56.3035 34.7366 56.3035C41.6306 56.3035 42.4482 56.2764 45.1701 56.1518C47.6876 56.0358 49.055 55.6132 49.9641 55.2556C51.1696 54.7842 52.0276 54.2208 52.9313 53.3105C53.835 52.4008 54.3955 51.5366 54.8635 50.3229C55.2169 49.4073 55.6376 48.031 55.7527 45.4954C55.8764 42.7538 55.9033 41.9302 55.9033 34.9895C55.9033 28.0488 55.8764 27.2253 55.7527 24.4837C55.6381 21.948 55.2169 20.5718 54.8635 19.6561C54.3944 18.4424 53.835 17.5755 52.9313 16.6653C52.0281 15.755 51.1691 15.1915 49.9641 14.7202C49.0539 14.3642 47.6876 13.9405 45.1701 13.8245C42.4477 13.6999 41.6306 13.675 34.7366 13.675C34.4386 13.675 34.1519 13.6749 33.876 13.6748ZM45.4208 21.113C45.4208 19.3895 46.8087 17.9933 48.5193 17.9933L48.5192 17.9922C50.2298 17.9922 51.6177 19.3901 51.6177 21.113C51.6177 22.836 50.2298 24.2339 48.5193 24.2339C46.8087 24.2339 45.4208 22.836 45.4208 21.113ZM21.4767 34.9955C21.4767 27.6199 27.4135 21.64 34.736 21.6397C42.0588 21.6397 47.9942 27.6197 47.9942 34.9955C47.9942 42.3712 42.0593 48.3485 34.7366 48.3485C27.4138 48.3485 21.4767 42.3712 21.4767 34.9955ZM43.3433 34.9955C43.3433 30.2075 39.4896 26.3264 34.7366 26.3264C29.9829 26.3264 26.1298 30.2075 26.1298 34.9955C26.1298 39.783 29.9829 43.6645 34.7366 43.6645C39.4896 43.6645 43.3433 39.783 43.3433 34.9955Z" fill="#BDAC9D"/>
</svg>
