<svg width="70" height="50" viewBox="0 0 70 50" fill="none" xmlns="http://www.w3.org/2000/svg">
<path fill-rule="evenodd" clip-rule="evenodd" d="M23.8687 0.0603544C19.385 0.145075 12.2235 0.572955 9.15319 0.939433C6.72096 1.22988 5.25502 1.93635 3.60867 3.61199C1.97929 5.27025 1.36712 6.62343 0.798899 9.82363C0.197413 13.21 0.0899553 15.0277 0.0197316 23.0097C-0.0518609 31.1264 0.0612088 34.4152 0.526903 37.7737C1.15467 42.3007 1.76341 43.8762 3.59594 45.7174C5.8008 47.9329 6.77393 48.248 12.9176 48.736C18.8703 49.2087 22.083 49.289 35.0251 49.289C49.3443 49.289 53.7701 49.1432 60.1669 48.4599C63.3268 48.1224 64.646 47.5462 66.4415 45.7189C68.1478 43.9824 68.7208 42.6685 69.3049 39.1535C69.9262 35.4149 70 33.8696 70 24.5965C70 15.5886 69.9302 14.0002 69.381 10.5224C68.8742 7.31361 68.2764 5.67978 67.0711 4.20959C65.8082 2.66903 63.9601 1.51137 62.1789 1.14516C60.146 0.727218 54.0561 0.300166 47.345 0.104922C43.3569 -0.0109822 29.0832 -0.0381642 23.8687 0.0603544ZM37.1356 18.1803C43.1254 21.3298 48.027 23.9404 48.0279 23.9818C48.0288 24.0231 43.7636 26.2858 38.5499 29.0098C33.3361 31.7338 28.3775 34.3284 27.5304 34.7757L25.9904 35.589V23.9755C25.9904 16.881 26.04 12.38 26.1176 12.4082C26.1876 12.4334 31.1456 15.0309 37.1356 18.1803Z" fill="#BDAC9D"/>
</svg>
