<svg width="70" height="70" viewBox="0 0 70 70" fill="none" xmlns="http://www.w3.org/2000/svg">
<path fill-rule="evenodd" clip-rule="evenodd" d="M31.1993 0.0935751C24.4881 0.898892 18.0133 3.61506 12.9121 7.76491C5.91642 13.4561 1.23872 21.9474 0.198742 30.8433C-0.0662474 33.1102 -0.0662474 36.9147 0.198742 39.1816C0.9443 45.5585 3.70424 52.0841 7.79667 57.1456C8.91904 58.534 11.5246 61.1411 12.9121 62.2642C16.6905 65.3229 21.7434 67.8634 26.3956 69.0434C29.4946 69.8294 30.9848 69.9958 34.9633 69.9999C39.0019 70.0042 40.2789 69.8694 43.3533 69.1146C48.224 67.9188 53.2465 65.4253 57.1514 62.2642C58.5389 61.1411 61.1445 58.534 62.2668 57.1456C65.4174 53.2489 67.9213 48.1995 69.113 43.3391C69.86 40.293 70 38.9775 70 35.0124C70 31.0473 69.86 29.7319 69.113 26.6858C67.9165 21.8058 65.4054 16.7454 62.2621 12.8792C56.8147 6.17934 48.9903 1.69202 40.3014 0.284769C38.6986 0.0252327 32.8015 -0.098715 31.1993 0.0935751ZM45.2289 22.2617C50.236 23.5888 54.034 27.7542 54.8912 32.8586L55.0616 33.8736L55.872 33.6213C56.9111 33.2977 58.917 33.2822 59.9523 33.5897C61.9383 34.1797 63.7407 35.6466 64.5795 37.3557C65.0496 38.3137 65.4132 39.8001 65.4132 40.7647C65.4132 44.1713 62.7002 47.4077 59.3361 48.0141C58.8049 48.1098 54.7995 48.1605 47.7571 48.1605H36.9904L36.7297 47.8722C36.4774 47.5932 36.4689 47.1896 36.4689 35.43C36.4689 25.538 36.5027 23.2354 36.6504 23.0573C36.8648 22.7987 38.1778 22.3429 39.4973 22.0689C40.8624 21.7854 43.805 21.8844 45.2289 22.2617ZM35.5278 24.0557C35.6322 24.2854 35.7393 27.1391 35.8529 32.7265C35.9897 39.4617 35.9885 41.6708 35.8462 44.2758C35.6937 47.0704 35.6358 47.5409 35.4095 47.8288C35.099 48.2239 34.7145 48.2539 34.3705 47.9097C34.153 47.6921 34.0973 47.2333 33.9472 44.4266C33.7143 40.0735 33.9853 24.4499 34.3025 23.9449C34.5787 23.5052 35.3073 23.571 35.5278 24.0557ZM32.7814 25.2088C33.035 25.3942 33.0547 25.7414 33.2164 32.8442C33.392 40.5665 33.2622 47.0923 32.9191 47.7849C32.7251 48.1765 32.1468 48.2537 31.8531 47.9272C31.4259 47.4527 31.2862 42.2336 31.4629 33.3491C31.6158 25.6617 31.6252 25.4887 31.9033 25.2541C32.248 24.9636 32.4332 24.954 32.7814 25.2088ZM25.0871 27.1031C25.2356 27.3436 25.3219 28.9589 25.4802 34.4646C25.6658 40.924 25.6638 41.787 25.4564 44.712C25.2275 47.9402 25.1795 48.1518 24.6732 48.1584C24.1989 48.1646 24.1231 47.7866 23.9401 44.5072C23.7919 41.85 23.7886 40.0616 23.9226 34.8755C24.0131 31.3728 24.0859 28.2186 24.0844 27.8661C24.0804 26.8994 24.6796 26.4433 25.0871 27.1031ZM27.793 27.8373C27.8406 28.1303 27.9556 31.4207 28.0485 35.1494C28.1936 40.9649 28.1888 42.3426 28.0151 44.8383C27.8085 47.8059 27.7232 48.1605 27.2163 48.1605C26.6781 48.1605 26.5833 47.6852 26.4092 44.1202C26.2811 41.4981 26.2775 39.4851 26.3937 35.5255C26.4772 32.6815 26.5455 29.7386 26.5455 28.9857C26.5455 27.8047 26.5826 27.5795 26.816 27.346C27.2296 26.9321 27.6831 27.1602 27.793 27.8373ZM22.5477 27.5139C22.634 27.618 22.7823 30.3326 22.9257 34.4357C23.1492 40.8329 23.1492 41.3596 22.9246 44.5022C22.6991 47.6585 22.6061 48.1632 22.2515 48.1584C21.7346 48.1513 21.6897 47.948 21.4742 44.639C21.2861 41.7552 21.2832 40.6103 21.449 34.67C21.5519 30.979 21.6923 27.8205 21.7611 27.6509C21.8971 27.3152 22.3216 27.2413 22.5477 27.5139ZM30.2489 27.8314C30.3836 27.9938 30.4726 29.6532 30.614 34.6402C30.7733 40.2608 30.7728 41.7144 30.6097 44.4877C30.4096 47.8916 30.3476 48.1605 29.7621 48.1605C29.1783 48.1605 29.1197 47.899 28.9412 44.4963C28.7284 40.4401 28.9752 28.1933 29.277 27.8294C29.5045 27.5552 30.0206 27.5563 30.2489 27.8314ZM19.955 28.6192C20.0497 28.7333 20.2004 31.092 20.3641 35.022C20.6153 41.0505 20.6157 41.3417 20.377 44.383C20.2413 46.1094 20.0945 47.6656 20.0504 47.8412C19.9631 48.1892 19.5504 48.2737 19.3271 47.9893C19.2532 47.8952 19.0919 46.3356 18.9684 44.5237C18.7623 41.4983 18.7613 40.7327 18.9563 35.142C19.0732 31.794 19.2259 28.9161 19.2955 28.7466C19.4371 28.402 19.7283 28.3457 19.955 28.6192ZM17.4833 30.9379C17.5634 31.0345 17.7462 33.3087 17.9027 36.1551L18.1803 41.2011L17.9062 44.5096C17.6187 47.9805 17.4948 48.4762 17.0311 48.0121C16.8734 47.8544 16.7669 47.0252 16.5832 44.5246C16.3533 41.3936 16.3533 41.0131 16.5829 36.1777C16.7153 33.3911 16.8533 31.0338 16.8897 30.939C16.9744 30.7178 17.3003 30.7173 17.4833 30.9379ZM12.6423 34.6358C12.6771 34.8054 12.8322 36.3923 12.9871 38.1625L13.2687 41.381L12.9562 44.563C12.7844 46.313 12.5837 47.8049 12.5102 47.8785C12.1634 48.2255 12.0502 47.6974 11.7779 44.4618L11.4956 41.1071L11.7643 37.957C11.9121 36.2245 12.0338 34.6992 12.0349 34.5673C12.0377 34.2015 12.5654 34.2611 12.6423 34.6358ZM10.1799 34.7728C10.2155 34.9423 10.3769 36.4368 10.5385 38.094L10.8326 41.1071L10.5171 44.2941C10.3436 46.0471 10.1552 47.5565 10.0984 47.6485C9.83049 48.0823 9.66569 47.3143 9.40029 44.3944L9.11778 41.2854L9.39687 38.0265C9.55031 36.234 9.71798 34.6993 9.76944 34.6161C9.92137 34.37 10.1107 34.4421 10.1799 34.7728ZM15.1095 35.0467C15.1462 35.2162 15.2971 36.6728 15.445 38.2836C15.7119 41.193 15.7119 41.2328 15.4455 44.3097C15.126 48.0004 15.1218 48.0235 14.7743 48.0235C14.4259 48.0235 14.4203 47.9904 14.1453 44.3508C13.9284 41.4763 13.9285 41.1134 14.1485 38.2562C14.2771 36.5851 14.4132 35.1099 14.4507 34.9782C14.5508 34.6268 15.0294 34.6765 15.1095 35.0467ZM8.0789 38.4343L8.43259 41.2184L8.09505 43.9019C7.78312 46.3812 7.65048 46.9671 7.44695 46.7636C7.40438 46.721 7.22836 45.4681 7.05563 43.9795L6.74177 41.273L7.05699 38.4509C7.23041 36.8986 7.37468 35.6082 7.37769 35.5831C7.38057 35.5579 7.46009 35.5629 7.55412 35.5938C7.66705 35.6311 7.84539 36.5958 8.0789 38.4343ZM5.75285 39.5406C6.024 41.2315 6.024 41.2341 5.74861 42.9359C5.59709 43.8726 5.43982 44.6723 5.39917 44.7128C5.2148 44.8974 5.07628 44.4101 4.87302 42.8609C4.674 41.3447 4.67332 41.0416 4.86467 39.5738C4.98074 38.6846 5.10406 37.8697 5.13883 37.763C5.28337 37.3188 5.49457 37.9301 5.75285 39.5406Z" fill="#BDAC9D"/>
</svg>
