<svg width="37" height="36" viewBox="0 0 37 36" fill="none" xmlns="http://www.w3.org/2000/svg">
<path d="M18.4728 7.11057C9.66739 11.0095 2.06405 14.359 1.58321 14.5716C0.0655466 15.2274 -0.385244 16.1489 0.336021 17.1236C0.606495 17.5135 1.43294 17.868 4.87398 19.1263L9.08136 20.6681L10.8244 26.7645C12.5675 32.8964 12.7027 33.2332 13.4691 33.4458C13.98 33.6053 14.4157 33.2332 16.7899 30.5394C18.0371 29.157 19.119 28.0228 19.2091 28.0228C19.2993 28.0228 21.2527 29.6355 23.5367 31.6027C25.971 33.6762 27.9545 35.2535 28.27 35.3598C28.9312 35.5725 29.7276 35.2181 30.1032 34.5446C30.2986 34.1724 36.0537 1.9534 36.0537 1.20906C36.0537 0.712841 35.3775 0.0216751 34.8966 0.0393982C34.6712 0.0393982 27.2783 3.2294 18.4728 7.11057ZM29.5623 6.59663C29.5923 6.80929 22.004 15.0501 14.551 22.8834C14.1452 23.3087 14.1152 23.4328 13.8748 26.3038C13.7395 27.9342 13.5893 29.2279 13.5592 29.1925C13.5292 29.157 12.9582 27.0304 12.297 24.4784C11.4405 21.1643 11.14 19.7643 11.2602 19.6225C11.3503 19.5161 15.3473 16.4679 20.1708 12.8349C25.385 8.90052 29.0364 6.24218 29.2167 6.27763C29.382 6.29535 29.5322 6.43713 29.5623 6.59663Z" fill="#E3DAD1"/>
</svg>
