<svg width="70" height="57" viewBox="0 0 70 57" fill="none" xmlns="http://www.w3.org/2000/svg">
<path d="M62.8336 14.16C62.8763 14.7771 62.8763 15.3942 62.8763 16.017C62.8763 34.9936 48.4298 56.8795 22.0138 56.8795V56.8681C14.2104 56.8795 6.56917 54.6443 0 50.4298C1.13467 50.5663 2.27504 50.6345 3.41824 50.6374C9.88503 50.643 16.167 48.4732 21.2545 44.4777C15.1091 44.3611 9.72009 40.3542 7.8375 34.5045C9.99025 34.9197 12.2084 34.8344 14.3213 34.2571C7.62137 32.9035 2.80114 27.0168 2.80114 20.1803V19.9983C4.79748 21.1102 7.0327 21.7273 9.31911 21.7956C3.00873 17.5782 1.06358 9.18336 4.87426 2.61988C12.1658 11.5921 22.9238 17.0465 34.4725 17.6237C33.3151 12.6357 34.8962 7.40883 38.6273 3.90243C44.4115 -1.5349 53.5088 -1.25621 58.9462 4.52522C62.1625 3.89106 65.2452 2.71088 68.0662 1.03873C66.9941 4.36313 64.7504 7.18702 61.753 8.98145C64.5996 8.64588 67.3809 7.88375 70 6.72063C68.0719 9.60993 65.6433 12.1267 62.8336 14.16Z" fill="#BDAC9D"/>
</svg>
